<?xml version="1.0" standalone="no"?>
<!DOCTYPE svg PUBLIC "-//W3C//DTD SVG 20010904//EN"
 "http://www.w3.org/TR/2001/REC-SVG-20010904/DTD/svg10.dtd">
<svg version="1.0" xmlns="http://www.w3.org/2000/svg"
 width="512.000000pt" height="512.000000pt" viewBox="0 0 512.000000 512.000000"
 preserveAspectRatio="xMidYMid meet">
<metadata>
Created by potrace 1.11, written by Peter Selinger 2001-2013
</metadata>
<g transform="translate(0.000000,512.000000) scale(0.100000,-0.100000)"
fill="#000000" stroke="none">
<path d="M205 4211 c-16 -10 -69 -59 -117 -109 -83 -86 -88 -94 -88 -134 l0
-43 622 -622 623 -623 -623 -623 -622 -623 0 -44 c0 -43 3 -47 108 -152 97
-97 112 -108 143 -108 24 0 49 10 75 29 21 16 361 352 756 747 740 743 742
745 721 801 -10 26 -1422 1454 -1477 1495 -45 33 -79 35 -121 9z"/>
<path d="M1987 1279 c-36 -21 -47 -63 -47 -182 0 -63 5 -128 11 -146 23 -65
-84 -61 1579 -61 1629 0 1552 -2 1580 49 5 11 10 81 10 156 l0 137 -29 29 -29
29 -1529 0 c-1019 -1 -1534 -4 -1546 -11z"/>
</g>
</svg>
